<?xml version="1.0" encoding="utf-8"?>
<!-- Generator: Adobe Illustrator 25.3.1, SVG Export Plug-In . SVG Version: 6.00 Build 0)  -->
<svg version="1.1" id="Layer_1" xmlns="http://www.w3.org/2000/svg" xmlns:xlink="http://www.w3.org/1999/xlink" x="0px" y="0px"
	 viewBox="0 0 128 128" style="enable-background:new 0 0 128 128;" xml:space="preserve">
<g>
	<circle style="fill:#F5F5F5;" cx="-40" cy="-66" r="64"/>
</g>
<g>
	<g>
		<circle style="fill:#F5F5F5;" cx="64" cy="64" r="63"/>
	</g>
	<path style="fill:#383838;" d="M109.5,94.7c-2.8-3.8-16.9-9-24.2-11.7c-2.5-0.9-3.8-1.4-4.4-1.8c-1-0.8-4.4-5.4-4.4-5.4h0h-0.2v-4
		c2.3-2.5,4-5.3,5.1-7.4c0.7-1.5,1.4-6.4,1.4-6.4c4.4-2,5-9.1,5.1-13c0.1-2-0.9-2.1-2-1.7c0-0.4,0.1-0.7,0.1-1.1
		c1.6-4,2.7-8.2,2.8-12.5c0.2-6.6-2.5-13.6-8.1-17.1c-5.2-3.3-11.8-3-18-2.6c-3.4,0.2-7,0.5-10.1,2c-3.1,1.5-5.3,4.8-5.1,8.3
		c-1.5-1.8-4.5-1.4-6.2,0.2c-1.7,1.6-2.2,4-2.6,6.3c-0.5,3.8-0.5,7.7,0.7,11.4c0.6,1.8,1.4,3.6,2.5,5.1c-1-0.4-1.9-0.2-1.9,1.7
		c0.2,3.9,0.7,11,5.1,13c0.4,3,0.8,5.3,1.4,6.4c1,2.1,2.8,4.9,5.1,7.4v3.9h-0.2h0c0,0-3.3,4.5-4.4,5.4c-0.1,0.1-0.6,0.3-1.3,0.6
		c-0.8,0.3-1.9,0.7-3.1,1.2c-7.3,2.7-21.3,7.9-24.2,11.7c-1.6,2.1-2.8,5-3.8,8.5C26.2,117.7,44,127,64,127c20,0,37.8-9.3,49.4-23.9
		C112.3,99.7,111.1,96.8,109.5,94.7z"/>
</g>
<g>
	<circle style="fill:#383838;" cx="106.2" cy="106.9" r="19"/>
	<path style="fill:#F5F5F5;" d="M106.2,88.9c9.9,0,18,8.1,18,18c0,9.9-8.1,18-18,18s-18-8.1-18-18C88.2,96.9,96.2,88.9,106.2,88.9
		 M106.2,86.9c-11,0-20,9-20,20s9,20,20,20s20-9,20-20S117.2,86.9,106.2,86.9L106.2,86.9z"/>
</g>
<g>
	<g>
		<g>
			<path style="fill:#FFFFFF;" d="M106.2,102.1c-2.6,0-4.8,2.1-4.8,4.8c0,2.6,2.1,4.8,4.8,4.8c2.6,0,4.8-2.1,4.8-4.8
				C111,104.2,108.8,102.1,106.2,102.1z M106.2,110.3c-1.9,0-3.4-1.5-3.4-3.4c0-1.9,1.5-3.4,3.4-3.4c1.9,0,3.4,1.5,3.4,3.4
				C109.6,108.8,108,110.3,106.2,110.3z"/>
		</g>
	</g>
	<g>
		<g>
			<path style="fill:#FFFFFF;" d="M117.3,104.8l-2.7-0.7c-0.2-0.5-0.4-1-0.6-1.5c0.4-0.7,1.2-2.1,1.2-2.1c0.2-0.3,0.1-0.6-0.1-0.8
				l-1.9-1.9c-0.2-0.2-0.6-0.3-0.8-0.1c0,0-1.4,0.8-2.1,1.2c-0.5-0.2-1-0.5-1.5-0.6c-0.2-0.8-0.7-2.7-0.7-2.7
				c-0.1-0.3-0.3-0.5-0.7-0.5h-2.7c-0.3,0-0.6,0.2-0.7,0.5c-0.2,0.8-0.5,2-0.7,2.7c-0.5,0.2-1.1,0.4-1.6,0.7
				c-0.3-0.2-0.7-0.4-1.1-0.7l-1-0.6c-0.3-0.2-0.6-0.1-0.8,0.1L97,99.8c-0.2,0.2-0.3,0.6-0.1,0.8c0,0,0.8,1.4,1.3,2.2
				c-0.2,0.4-0.4,0.9-0.5,1.3c-0.9,0.2-2.7,0.7-2.7,0.7c-0.3,0.1-0.5,0.3-0.5,0.7v2.7c0,0.3,0.2,0.6,0.5,0.7c0,0,1.8,0.4,2.7,0.7
				c0.2,0.5,0.4,1,0.6,1.5l-1.2,2c-0.2,0.3-0.1,0.6,0.1,0.8l1.9,1.9c0.2,0.2,0.6,0.3,0.8,0.1c0,0,1.3-0.8,2-1.2
				c0.5,0.3,1,0.5,1.5,0.6l0.7,2.7c0.1,0.3,0.3,0.5,0.7,0.5h2.7c0.3,0,0.6-0.2,0.7-0.5l0.7-2.7c0.5-0.2,1-0.4,1.5-0.6
				c0.7,0.4,2,1.2,2,1.2c0.3,0.2,0.6,0.1,0.8-0.1l1.9-1.9c0.2-0.2,0.3-0.6,0.1-0.8c0,0-0.8-1.4-1.2-2.1c0.2-0.5,0.4-0.9,0.6-1.4
				c0.8-0.2,2.7-0.7,2.7-0.7c0.3-0.1,0.5-0.3,0.5-0.7v-2.7C117.8,105.2,117.6,104.9,117.3,104.8z M116.5,107.7
				c-0.8,0.2-2.2,0.5-2.5,0.6l-0.1,0c-0.2,0.1-0.4,0.2-0.5,0.5c-0.2,0.6-0.4,1.3-0.8,1.9c-0.1,0.2-0.1,0.5,0,0.7
				c0,0.1,0.8,1.3,1.2,1.9l-1.2,1.2c-0.7-0.4-1.9-1.1-1.9-1.1c-0.2-0.1-0.5-0.1-0.7,0c-0.6,0.4-1.2,0.6-1.9,0.8
				c-0.2,0.1-0.4,0.2-0.5,0.5c0,0.1-0.1,0.3-0.1,0.3l-0.6,2.3h-1.7l-0.5-2l-0.1-0.5c-0.1-0.2-0.2-0.4-0.5-0.5
				c-0.7-0.2-1.3-0.4-1.9-0.8c-0.2-0.1-0.5-0.1-0.7,0c-0.1,0.1-1.2,0.7-1.9,1.1l-1.2-1.2l1.1-1.9c0.1-0.2,0.1-0.5,0-0.7
				c-0.4-0.6-0.6-1.2-0.8-1.9c-0.1-0.2-0.3-0.4-0.5-0.5c-0.5-0.1-1.8-0.4-2.5-0.6V106c0.7-0.2,2.1-0.5,2.5-0.6
				c0.2-0.1,0.4-0.2,0.5-0.5c0.2-0.6,0.4-1.2,0.7-1.7c0.1-0.2,0.1-0.5,0-0.7c-0.3-0.6-0.9-1.5-1.3-2.1l1.2-1.2l0.6,0.3
				c0.7,0.4,1.5,0.9,1.5,0.9c0.2,0.1,0.5,0.1,0.7,0c0.6-0.4,1.3-0.6,2-0.8c0.2-0.1,0.4-0.3,0.5-0.5c0-0.1,0.4-1.7,0.6-2.5h1.7
				c0.2,0.9,0.6,2.5,0.6,2.5c0.1,0.2,0.2,0.4,0.5,0.5c0.7,0.2,1.3,0.4,1.9,0.8c0.2,0.1,0.5,0.1,0.7,0c0.2-0.1,1.3-0.8,2-1.2l1.2,1.2
				c-0.4,0.7-1.1,1.9-1.2,2c-0.1,0.2-0.1,0.5,0,0.7c0.3,0.6,0.6,1.2,0.8,1.9c0.1,0.2,0.2,0.4,0.5,0.5c0.1,0,0.3,0.1,0.3,0.1l2.3,0.6
				V107.7z"/>
		</g>
	</g>
</g>
</svg>
